<svg xmlns="http://www.w3.org/2000/svg" xmlns:xlink="http://www.w3.org/1999/xlink" width="900" height="340" viewBox="0 0 900 340" role="img" aria-label="Animated Karachi night skyline reflecting in the Arabian Sea — MUSTAFA KHAN, full-stack developer">
  <title>MUSTAFA KHAN — Karachi skyline over the sea</title>
  <style>
    :root {
      --sky-0: #050810; --sky-1: #0a1524; --sky-2: #10283c;
      --haze: rgba(255, 190, 100, 0.07);
      --far: #0d1a2a; --far-op: 0.9;
      --bld: #091019; --bld-2: #0c1520;
      --win: #16202e; --lit: #ffd166; --cool: #8fd3ff;
      --sea-0: #04070d; --sea-1: #02040a;
      --shim: #ffd166; --shim-op: 0.34;
      --moon: #e8edf4; --moon-glow: rgba(190, 208, 230, 0.13);
      --refl: #cdd8e6;
      --name-a: #7d8a9c; --name-b: #f2f6fb;
      --sub: #8b98a9; --sub-2: #5d6b80;
      --accent: #ffd166;
      --clock-face: #ffd166; --clock-hand: #05080e;
      --boat: #060b12;
      --cloud: rgba(180, 200, 225, 0.07);
    }
    @media (prefers-color-scheme: light) {
      :root {
        --sky-0: #fdf3e0; --sky-1: #f9dca6; --sky-2: #f4b872;
        --haze: rgba(244, 169, 79, 0.22);
        --far: #8e93ad; --far-op: 0.55;
        --bld: #2f3350; --bld-2: #3c4066;
        --win: #4a4e70; --lit: #ffe9b0; --cool: #bfe3ff;
        --sea-0: #cfdde8; --sea-1: #e9f1f7;
        --shim: #f4a94f; --shim-op: 0.5;
        --moon: #f08c4a; --moon-glow: rgba(244, 169, 79, 0.35);
        --refl: #f4a94f;
        --name-a: #22254a; --name-b: #6a4a20;
        --sub: #4c5546; --sub-2: #7a6a52;
        --accent: #c2601f;
        --clock-face: #fff7ec; --clock-hand: #2f3350;
        --boat: #2f3350;
        --cloud: rgba(255, 255, 255, 0.55);
      }
    }
    .sky { fill: url(#skyGrad); }
    .sea { fill: url(#seaGrad); }
    .far { fill: var(--far); opacity: var(--far-op); }
    .b1 { fill: var(--bld); } .b2 { fill: var(--bld-2); }
    .U { fill: var(--win); }
    .L { fill: var(--lit); animation: winF 9s ease-in-out infinite; }
    .C { fill: var(--cool); animation: winF 11s ease-in-out infinite; }
    .d1 { animation-delay: 0s; } .d2 { animation-delay: 1.3s; } .d3 { animation-delay: 2.6s; }
    .d4 { animation-delay: 4.1s; } .d5 { animation-delay: 5.5s; } .d6 { animation-delay: 6.9s; }
    .star { fill: #fff; animation: twk 3.4s ease-in-out infinite; }
    .tw1 { animation-delay: .4s; } .tw2 { animation-delay: 1.5s; } .tw3 { animation-delay: 2.4s; }
    .beacon { fill: #ff5c5c; animation: bcn 2.2s ease-in-out infinite; }
    .cursor { fill: var(--accent); animation: blk 1.1s steps(1) infinite; }
    .moon { fill: var(--moon); }
    .moon-halo { fill: var(--moon-glow); animation: brth 11s ease-in-out infinite; }
    .stars-g { } .moon-g { } .sun-g { display: none; }
    @media (prefers-color-scheme: light) {
      .stars-g { display: none; } .moon-g { display: none; } .sun-g { display: block; }
    }
    .name { font: 800 46px "Segoe UI", Arial, Helvetica, sans-serif; letter-spacing: 6px; fill: url(#nameGrad); }
    .sub { font: 500 12.5px ui-monospace, "Cascadia Mono", Menlo, Consolas, monospace; letter-spacing: 4px; fill: var(--sub); }
    .coords { font: 400 10px ui-monospace, "Cascadia Mono", Menlo, Consolas, monospace; letter-spacing: 2.5px; fill: var(--sub-2); }
    .clk-face { fill: var(--clock-face); }
    .clk-hand { stroke: var(--clock-hand); stroke-width: 2.4; stroke-linecap: round; }
    .mast { stroke: var(--bld); }
    .shim-r { fill: var(--shim); opacity: var(--shim-op); }
    .hull { fill: var(--boat); }
    .cloud-e { fill: var(--cloud); }
    @keyframes twk { 0%, 100% { opacity: .12; } 50% { opacity: 1; } }
    @keyframes winF { 0%, 100% { opacity: 1; } 50% { opacity: .3; } }
    @keyframes bcn { 0%, 100% { opacity: .12; } 50% { opacity: 1; } }
    @keyframes blk { 0%, 55% { opacity: 1; } 56%, 100% { opacity: 0; } }
    @keyframes brth { 0%, 100% { opacity: .8; } 50% { opacity: 1; } }
    @keyframes reflSway { 0%, 100% { transform: skewX(-1.2deg); } 50% { transform: skewX(1.4deg); } }
    .refl-sway { animation: reflSway 7.5s ease-in-out infinite; }
  </style>

  <defs>
    <linearGradient id="skyGrad" x1="0" y1="0" x2="0" y2="1">
      <stop offset="0" stop-color="var(--sky-0)"/>
      <stop offset="0.72" stop-color="var(--sky-1)"/>
      <stop offset="1" stop-color="var(--sky-2)"/>
    </linearGradient>
    <linearGradient id="seaGrad" x1="0" y1="0" x2="0" y2="1">
      <stop offset="0" stop-color="var(--sea-0)"/>
      <stop offset="1" stop-color="var(--sea-1)"/>
    </linearGradient>
    <linearGradient id="hazeGrad" x1="0" y1="0" x2="0" y2="1">
      <stop offset="0" stop-color="var(--haze)" stop-opacity="0"/>
      <stop offset="1" stop-color="var(--haze)"/>
    </linearGradient>
    <linearGradient id="nameGrad" gradientUnits="userSpaceOnUse" x1="30" y1="0" x2="640" y2="0">
      <stop offset="0" stop-color="var(--name-a)"/>
      <stop offset="0.5" stop-color="var(--name-b)"/>
      <stop offset="1" stop-color="var(--name-a)"/>
      <animateTransform attributeName="gradientTransform" type="translate" values="-300 0; 300 0" dur="6s" repeatCount="indefinite"/>
    </linearGradient>
    <linearGradient id="accentGrad" x1="0" y1="0" x2="1" y2="0">
      <stop offset="0" stop-color="var(--accent)"/>
      <stop offset="1" stop-color="var(--accent)" stop-opacity="0"/>
    </linearGradient>
    <linearGradient id="fadeGrad" x1="0" y1="0" x2="0" y2="1">
      <stop offset="0" stop-color="#fff" stop-opacity="0.85"/>
      <stop offset="0.55" stop-color="#fff" stop-opacity="0.35"/>
      <stop offset="1" stop-color="#fff" stop-opacity="0"/>
    </linearGradient>
    <linearGradient id="moonReflGrad" x1="0" y1="0" x2="0" y2="1">
      <stop offset="0" stop-color="var(--refl)" stop-opacity="0.55"/>
      <stop offset="1" stop-color="var(--refl)" stop-opacity="0"/>
    </linearGradient>
    <mask id="crescentCut">
      <rect x="740" y="14" width="110" height="110" fill="black"/>
      <circle cx="795" cy="62" r="24" fill="white"/>
      <circle cx="806" cy="53" r="20" fill="black"/>
    </mask>
    <mask id="reflMask">
      <rect x="0" y="280" width="900" height="64" fill="url(#fadeGrad)"/>
    </mask>
    <filter id="ripple" x="-8%" y="-25%" width="116%" height="170%">
      <feGaussianBlur in="SourceGraphic" stdDeviation="1.1" result="soft"/>
      <feTurbulence type="fractalNoise" baseFrequency="0.011 0.13" numOctaves="1" seed="7" result="waves">
        <animate attributeName="baseFrequency" dur="8s" values="0.011 0.13;0.016 0.10;0.011 0.13" repeatCount="indefinite"/>
      </feTurbulence>
      <feDisplacementMap in="soft" in2="waves" scale="8" xChannelSelector="R" yChannelSelector="G"/>
    </filter>
  </defs>

  <!-- ======================= SKY ======================= -->
  <rect class="sky" width="900" height="280"/>

  <g class="stars-g">
    <circle class="star" cx="72" cy="46" r="1.7"/>
    <circle class="star tw1" cx="141" cy="82" r="1.1"/>
    <circle class="star tw2" cx="208" cy="34" r="1.4"/>
    <circle class="star" cx="296" cy="64" r="1.2"/>
    <circle class="star tw3" cx="372" cy="26" r="1.6"/>
    <circle class="star tw1" cx="452" cy="72" r="1.0"/>
    <circle class="star" cx="530" cy="38" r="1.3"/>
    <circle class="star tw2" cx="612" cy="88" r="1.1"/>
    <circle class="star" cx="700" cy="30" r="1.5"/>
    <circle class="star tw3" cx="846" cy="96" r="1.2"/>
    <circle class="star tw1" cx="878" cy="44" r="1.6"/>
    <circle class="star tw2" cx="500" cy="106" r="0.9"/>
    <!-- shooting star: streaks once per cycle -->
    <g>
      <animateTransform attributeName="transform" type="translate" dur="11s" values="0 0; 0 0; -120 58; -120 58" keyTimes="0; 0.84; 0.97; 1" repeatCount="indefinite"/>
      <line x1="640" y1="36" x2="674" y2="20" stroke="#fff" stroke-width="1.6" stroke-linecap="round" opacity="0">
        <animate attributeName="opacity" dur="11s" values="0;0;0.9;0" keyTimes="0;0.84;0.9;1" repeatCount="indefinite"/>
      </line>
    </g>
  </g>

  <g class="moon-g">
    <circle class="moon-halo" cx="795" cy="62" r="52"/>
    <circle class="moon" cx="795" cy="62" r="24" mask="url(#crescentCut)"/>
    <polygon fill="#fff" points="828,62 829.6,66.9 834.7,67 830.6,70 832,74.8 828,72.1 824,74.8 825.4,70 821.3,67 826.4,66.9"/>
  </g>
  <g class="sun-g">
    <circle cx="795" cy="238" r="64" fill="var(--moon-glow)"/>
    <circle cx="795" cy="238" r="22" fill="var(--moon)"/>
  </g>

  <!-- drifting clouds -->
  <ellipse class="cloud-e" cx="180" cy="86" rx="86" ry="10">
    <animateTransform attributeName="transform" type="translate" values="0 0; 46 0; 0 0" dur="76s" repeatCount="indefinite"/>
  </ellipse>
  <ellipse class="cloud-e" cx="520" cy="54" rx="64" ry="8">
    <animateTransform attributeName="transform" type="translate" values="0 0; -52 0; 0 0" dur="92s" repeatCount="indefinite"/>
  </ellipse>

  <!-- plane crossing, nav light blinking -->
  <g>
    <animateTransform attributeName="transform" type="translate" from="-90 34" to="1000 26" dur="58s" repeatCount="indefinite"/>
    <rect x="0" y="0" width="15" height="2.8" rx="1.4" fill="var(--sub-2)"/>
    <rect x="9" y="-4" width="4" height="5" rx="1" fill="var(--sub-2)"/>
    <circle cx="-1" cy="1.4" r="1.6" fill="#ff5c5c">
      <animate attributeName="opacity" values="1;0.15;1" dur="1.1s" repeatCount="indefinite"/>
    </circle>
  </g>

  <!-- horizon haze -->
  <rect x="0" y="238" width="900" height="42" fill="url(#hazeGrad)"/>

  <!-- ======================= FAR SKYLINE (hazy) ======================= -->
  <g class="far">
    <rect x="0" y="208" width="58" height="72"/>
    <rect x="62" y="224" width="34" height="56"/>
    <rect x="204" y="214" width="30" height="66"/>
    <rect x="330" y="202" width="40" height="78"/>
    <rect x="392" y="224" width="26" height="56"/>
    <rect x="502" y="206" width="34" height="74"/>
    <rect x="612" y="218" width="30" height="62"/>
    <rect x="700" y="228" width="24" height="52"/>
    <rect x="848" y="204" width="52" height="76"/>
  </g>

  <!-- ======================= CITY (reflected) ======================= -->
  <g id="city">
    <!-- Mazar-e-Quaid -->
    <rect class="b2" x="88" y="242" width="150" height="38"/>
    <path class="b1" d="M110 280 V198 Q110 182 126 182 H200 Q216 182 216 198 V280 Z"/>
    <path class="b1" d="M126 188 C126 146 146 122 163 122 C180 122 200 146 200 188 Z"/>
    <line class="mast" x1="163" y1="122" x2="163" y2="106" stroke-width="2.5"/>
    <circle class="b1" cx="163" cy="104" r="2.8"/>
    <rect class="U" x="136" y="200" width="9" height="15"/>
    <rect class="L d2" x="158" y="200" width="9" height="15"/>
    <rect class="U" x="180" y="200" width="9" height="15"/>
    <rect class="L d5" x="136" y="226" width="9" height="15"/>
    <rect class="U" x="158" y="226" width="9" height="15"/>
    <rect class="L d1" x="180" y="226" width="9" height="15"/>
    <rect class="L d3" x="136" y="252" width="9" height="15"/>
    <rect class="U" x="180" y="252" width="9" height="15"/>

    <!-- Empress Market clock tower -->
    <rect class="b1" x="252" y="152" width="40" height="128"/>
    <polygon class="b1" points="252,152 292,152 272,130"/>
    <circle class="clk-face" cx="272" cy="174" r="11"/>
    <line class="clk-hand" x1="272" y1="174" x2="272" y2="165">
      <animateTransform attributeName="transform" type="rotate" from="0 272 174" to="360 272 174" dur="40s" repeatCount="indefinite"/>
    </line>
    <line class="clk-hand" x1="272" y1="174" x2="280" y2="174">
      <animateTransform attributeName="transform" type="rotate" from="0 272 174" to="360 272 174" dur="480s" repeatCount="indefinite"/>
    </line>
    <rect class="L d4" x="262" y="198" width="20" height="10"/>
    <rect class="U" x="262" y="220" width="20" height="10"/>
    <rect class="L d1" x="262" y="242" width="20" height="10"/>
    <rect class="U" x="262" y="262" width="20" height="10"/>

    <!-- mid cluster -->
    <rect class="b2" x="310" y="196" width="48" height="84"/>
    <rect class="U" x="318" y="206" width="8" height="12"/>
    <rect class="L d3" x="332" y="206" width="8" height="12"/>
    <rect class="U" x="346" y="206" width="8" height="12"/>
    <rect class="L d6" x="318" y="228" width="8" height="12"/>
    <rect class="U" x="346" y="228" width="8" height="12"/>
    <rect class="U" x="318" y="250" width="8" height="12"/>
    <rect class="L d2" x="346" y="250" width="8" height="12"/>

    <rect class="b1" x="366" y="168" width="52" height="112"/>
    <rect class="b2" x="374" y="158" width="14" height="10"/>
    <rect class="U" x="374" y="180" width="8" height="12"/>
    <rect class="L d5" x="388" y="180" width="8" height="12"/>
    <rect class="U" x="402" y="180" width="8" height="12"/>
    <rect class="U" x="374" y="202" width="8" height="12"/>
    <rect class="C d2" x="402" y="202" width="8" height="12"/>
    <rect class="L d1" x="374" y="224" width="8" height="12"/>
    <rect class="U" x="388" y="224" width="8" height="12"/>
    <rect class="U" x="402" y="224" width="8" height="12"/>
    <rect class="L d4" x="374" y="246" width="8" height="12"/>
    <rect class="U" x="402" y="246" width="8" height="12"/>

    <rect class="b2" x="424" y="186" width="44" height="94"/>
    <rect class="U" x="432" y="198" width="8" height="12"/>
    <rect class="L d6" x="448" y="198" width="8" height="12"/>
    <rect class="U" x="432" y="220" width="8" height="12"/>
    <rect class="L d3" x="448" y="220" width="8" height="12"/>
    <rect class="U" x="432" y="242" width="8" height="12"/>
    <rect class="U" x="448" y="242" width="8" height="12"/>

    <rect class="b1" x="474" y="160" width="50" height="120"/>
    <rect class="U" x="482" y="172" width="8" height="12"/>
    <rect class="L d2" x="496" y="172" width="8" height="12"/>
    <rect class="U" x="510" y="172" width="8" height="12"/>
    <rect class="L d5" x="482" y="194" width="8" height="12"/>
    <rect class="U" x="510" y="194" width="8" height="12"/>
    <rect class="U" x="482" y="216" width="8" height="12"/>
    <rect class="L d1" x="496" y="216" width="8" height="12"/>
    <rect class="C d4" x="510" y="216" width="8" height="12"/>
    <rect class="U" x="482" y="238" width="8" height="12"/>
    <rect class="L d3" x="510" y="238" width="8" height="12"/>
    <rect class="U" x="496" y="258" width="8" height="12"/>

    <!-- tall antenna tower -->
    <rect class="b2" x="565" y="78" width="52" height="202"/>
    <rect class="b2" x="578" y="66" width="26" height="12"/>
    <line class="mast" x1="591" y1="66" x2="591" y2="30" stroke-width="2.6"/>
    <circle class="beacon" cx="591" cy="28" r="4"/>
    <rect class="U" x="573" y="90" width="7" height="11"/>
    <rect class="L d1" x="584" y="90" width="7" height="11"/>
    <rect class="U" x="595" y="90" width="7" height="11"/>
    <rect class="U" x="573" y="112" width="7" height="11"/>
    <rect class="U" x="595" y="112" width="7" height="11"/>
    <rect class="L d4" x="584" y="112" width="7" height="11"/>
    <rect class="L d2" x="573" y="134" width="7" height="11"/>
    <rect class="U" x="595" y="134" width="7" height="11"/>
    <rect class="U" x="584" y="156" width="7" height="11"/>
    <rect class="L d6" x="573" y="156" width="7" height="11"/>
    <rect class="U" x="573" y="178" width="7" height="11"/>
    <rect class="C d3" x="595" y="178" width="7" height="11"/>
    <rect class="L d5" x="584" y="200" width="7" height="11"/>
    <rect class="U" x="573" y="222" width="7" height="11"/>
    <rect class="L d1" x="595" y="244" width="7" height="11"/>

    <!-- construction crane -->
    <rect class="b1" x="655" y="108" width="9" height="172"/>
    <rect class="b1" x="647" y="100" width="25" height="10"/>
    <g>
      <animateTransform attributeName="transform" type="rotate" values="-3.5 659 105; 3.5 659 105; -3.5 659 105" dur="17s" repeatCount="indefinite"/>
      <rect class="b1" x="659" y="103" width="86" height="4"/>
      <rect class="b1" x="612" y="103" width="47" height="4"/>
      <rect class="b1" x="614" y="107" width="20" height="12"/>
      <line class="mast" x1="741" y1="107" x2="741" y2="138" stroke-width="1.4"/>
      <rect class="b1" x="737" y="138" width="8" height="9"/>
    </g>

    <!-- right towers -->
    <rect class="b2" x="735" y="160" width="54" height="120"/>
    <rect class="U" x="743" y="172" width="8" height="12"/>
    <rect class="L d3" x="757" y="172" width="8" height="12"/>
    <rect class="U" x="771" y="172" width="8" height="12"/>
    <rect class="L d6" x="743" y="194" width="8" height="12"/>
    <rect class="U" x="771" y="194" width="8" height="12"/>
    <rect class="U" x="743" y="216" width="8" height="12"/>
    <rect class="L d2" x="757" y="216" width="8" height="12"/>
    <rect class="U" x="743" y="238" width="8" height="12"/>
    <rect class="U" x="771" y="238" width="8" height="12"/>

    <rect class="b1" x="795" y="132" width="50" height="148"/>
    <rect class="b2" x="806" y="122" width="13" height="10"/>
    <rect class="U" x="803" y="144" width="8" height="12"/>
    <rect class="L d5" x="817" y="144" width="8" height="12"/>
    <rect class="U" x="831" y="144" width="8" height="12"/>
    <rect class="U" x="803" y="166" width="8" height="12"/>
    <rect class="L d1" x="831" y="166" width="8" height="12"/>
    <rect class="C d4" x="803" y="188" width="8" height="12"/>
    <rect class="U" x="817" y="188" width="8" height="12"/>
    <rect class="L d3" x="803" y="210" width="8" height="12"/>
    <rect class="U" x="831" y="210" width="8" height="12"/>
    <rect class="U" x="803" y="232" width="8" height="12"/>
    <rect class="L d6" x="817" y="232" width="8" height="12"/>

    <rect class="b2" x="850" y="170" width="50" height="110"/>
    <rect class="U" x="858" y="182" width="8" height="12"/>
    <rect class="L d2" x="872" y="182" width="8" height="12"/>
    <rect class="U" x="858" y="204" width="8" height="12"/>
    <rect class="U" x="886" y="204" width="8" height="12"/>
    <rect class="L d4" x="872" y="226" width="8" height="12"/>
    <rect class="U" x="858" y="248" width="8" height="12"/>
  </g>

  <!-- foreground silhouettes (not reflected) -->
  <g class="b1">
    <rect x="0" y="238" width="64" height="42"/>
    <rect x="12" y="228" width="16" height="10"/>
    <line x1="15" y1="238" x2="15" y2="228" stroke="var(--bld)" stroke-width="1.6"/>
    <line x1="25" y1="238" x2="25" y2="228" stroke="var(--bld)" stroke-width="1.6"/>
  </g>

  <!-- sea wall -->
  <rect class="b1" x="0" y="278" width="900" height="6"/>

  <!-- ======================= SEA ======================= -->
  <rect class="sea" x="0" y="282" width="900" height="58"/>

  <!-- city reflection: mirrored, rippled, fading -->
  <g mask="url(#reflMask)" opacity="0.4">
    <g class="refl-sway">
      <g filter="url(#ripple)">
        <use href="#city" xlink:href="#city" transform="translate(0, 562) scale(1, -1)"/>
        <ellipse cx="795" cy="292" rx="30" ry="44" fill="url(#moonReflGrad)" opacity="0.7"/>
      </g>
    </g>
  </g>

  <!-- shimmer streaks -->
  <rect class="shim-r" x="120" y="292" width="88" height="2" rx="1">
    <animateTransform attributeName="transform" type="translate" values="0 0; 42 0; 0 0" dur="9s" repeatCount="indefinite"/>
  </rect>
  <rect class="shim-r" x="340" y="300" width="56" height="2" rx="1">
    <animateTransform attributeName="transform" type="translate" values="0 0; -36 0; 0 0" dur="7s" repeatCount="indefinite"/>
  </rect>
  <rect class="shim-r" x="560" y="308" width="110" height="2" rx="1">
    <animateTransform attributeName="transform" type="translate" values="0 0; 55 0; 0 0" dur="12s" repeatCount="indefinite"/>
  </rect>
  <rect class="shim-r" x="60" y="318" width="64" height="2" rx="1">
    <animateTransform attributeName="transform" type="translate" values="0 0; -30 0; 0 0" dur="8s" repeatCount="indefinite"/>
  </rect>
  <rect class="shim-r" x="700" y="326" width="90" height="2" rx="1">
    <animateTransform attributeName="transform" type="translate" values="0 0; 38 0; 0 0" dur="10s" repeatCount="indefinite"/>
  </rect>
  <rect class="shim-r" x="420" y="332" width="70" height="2" rx="1">
    <animateTransform attributeName="transform" type="translate" values="0 0; -44 0; 0 0" dur="11s" repeatCount="indefinite"/>
  </rect>

  <!-- fishing boat drifting home -->
  <g>
    <animateTransform attributeName="transform" type="translate" from="980 296" to="-120 299" dur="84s" repeatCount="indefinite"/>
    <g>
      <animateTransform attributeName="transform" type="translate" values="0 0; 0 1.6; 0 0" dur="3.4s" repeatCount="indefinite"/>
      <path class="hull" d="M0 4 Q2 9 11 9 H26 Q29 9 31 4 Z"/>
      <line x1="16" y1="4" x2="16" y2="-7" stroke="var(--boat)" stroke-width="1.4"/>
      <circle cx="16" cy="-8" r="1.7" fill="var(--lit)">
        <animate attributeName="opacity" values="1;0.25;1" dur="2.6s" repeatCount="indefinite"/>
      </circle>
    </g>
  </g>

  <!-- ======================= NAME ======================= -->
  <text class="name" x="48" y="92" textLength="486" lengthAdjust="spacingAndGlyphs">MUSTAFA KHAN</text>
  <rect class="cursor" x="542" y="58" width="15" height="36"/>
  <rect x="48" y="102" width="180" height="2.5" fill="url(#accentGrad)"/>
  <text class="sub" x="49" y="126">FULL-STACK DEVELOPER — KARACHI</text>
  <text class="coords" x="49" y="146">24.8607° N · 67.0011° E</text>
</svg>
